<svg xmlns="http://www.w3.org/2000/svg" viewBox="0 0 48 48" id="clipboard">
  <g>
    <path d="M4,20C4,12.46,4,8.69,6.34,6.34S12.46,4,20,4h8c7.54,0,11.31,0,13.66,2.34S44,12.46,44,20v8c0,7.54,0,11.31-2.34,13.66S35.54,44,28,44H20c-7.54,0-11.31,0-13.66-2.34S4,35.54,4,28Z"></path>
    <path fill="#fff" d="M31.75,18.25v14A1.76,1.76,0,0,1,30,34H18a1.76,1.76,0,0,1-1.75-1.75v-14a1.75,1.75,0,0,1,1.58-1.73,3.47,3.47,0,0,0-.08.73v1A3.26,3.26,0,0,0,21,21.5h6a3.26,3.26,0,0,0,3.25-3.25v-1a3.47,3.47,0,0,0-.08-.73A1.75,1.75,0,0,1,31.75,18.25ZM20,31h4a.75.75,0,0,0,0-1.5H20A.75.75,0,0,0,20,31Zm0-3h8a.75.75,0,0,0,0-1.5H20A.75.75,0,0,0,20,28Zm0-3h8a.75.75,0,0,0,0-1.5H20A.75.75,0,0,0,20,25Zm7-9.5h-.56a2.73,2.73,0,0,0-4.88,0H21a1.76,1.76,0,0,0-1.75,1.75v1A1.76,1.76,0,0,0,21,20h6a1.76,1.76,0,0,0,1.75-1.75v-1A1.76,1.76,0,0,0,27,15.5Z"></path>
  </g>
</svg>